<mxfile host="app.diagrams.net" modified="2024-04-23T07:14:21.883Z" agent="Mozilla/5.0 (Windows NT 10.0; Win64; x64) AppleWebKit/537.36 (KHTML, like Gecko) Chrome/124.0.0.0 Safari/537.36" etag="v36ZJdaGtmaXIA-vyCXX" version="23.1.5" type="google">
  <diagram name="Page-1" id="TqXQaIa7VFJrKnLl9uhu">
    <mxGraphModel grid="1" page="1" gridSize="10" guides="1" tooltips="1" connect="1" arrows="1" fold="1" pageScale="1" pageWidth="850" pageHeight="1100" math="0" shadow="0">
      <root>
        <mxCell id="0" />
        <mxCell id="1" parent="0" />
        <mxCell id="0SpZsRbNBnnIL4KE9JeZ-11" value="" style="edgeStyle=orthogonalEdgeStyle;rounded=1;orthogonalLoop=1;jettySize=auto;html=1;entryX=1;entryY=0.75;entryDx=0;entryDy=0;" edge="1" parent="1" source="0SpZsRbNBnnIL4KE9JeZ-1" target="0SpZsRbNBnnIL4KE9JeZ-20">
          <mxGeometry relative="1" as="geometry">
            <mxPoint x="260" y="227.5" as="targetPoint" />
          </mxGeometry>
        </mxCell>
        <mxCell id="1VHxH9nMJPTkHr2wjVnj-29" style="edgeStyle=orthogonalEdgeStyle;rounded=0;orthogonalLoop=1;jettySize=auto;html=1;exitX=1;exitY=0.25;exitDx=0;exitDy=0;" edge="1" parent="1" source="0SpZsRbNBnnIL4KE9JeZ-1" target="ob3RGpo1RecC66wYNnC--74">
          <mxGeometry relative="1" as="geometry" />
        </mxCell>
        <mxCell id="0SpZsRbNBnnIL4KE9JeZ-1" value="Patients" style="rounded=1;whiteSpace=wrap;html=1;fillColor=#6d8764;fontColor=#ffffff;strokeColor=#3A5431;" vertex="1" parent="1">
          <mxGeometry x="480" y="208" width="120" height="42" as="geometry" />
        </mxCell>
        <mxCell id="0SpZsRbNBnnIL4KE9JeZ-15" style="edgeStyle=orthogonalEdgeStyle;rounded=1;orthogonalLoop=1;jettySize=auto;html=1;exitX=0.5;exitY=1;exitDx=0;exitDy=0;" edge="1" parent="1">
          <mxGeometry relative="1" as="geometry">
            <mxPoint x="620" y="255" as="sourcePoint" />
            <mxPoint x="620" y="255" as="targetPoint" />
          </mxGeometry>
        </mxCell>
        <mxCell id="0SpZsRbNBnnIL4KE9JeZ-16" value="Appointment" style="whiteSpace=wrap;html=1;rounded=1;fillColor=#6d8764;fontColor=#ffffff;strokeColor=#3A5431;" vertex="1" parent="1">
          <mxGeometry x="755" y="255" width="210" height="60" as="geometry" />
        </mxCell>
        <mxCell id="0SpZsRbNBnnIL4KE9JeZ-20" value="Prescription" style="rounded=1;whiteSpace=wrap;html=1;fillColor=#6d8764;fontColor=#ffffff;strokeColor=#3A5431;" vertex="1" parent="1">
          <mxGeometry y="185" width="120" height="60" as="geometry" />
        </mxCell>
        <mxCell id="gQqkHM6tkbFhDszC7yFE-4" style="edgeStyle=orthogonalEdgeStyle;rounded=0;orthogonalLoop=1;jettySize=auto;html=1;exitX=1;exitY=0.5;exitDx=0;exitDy=0;entryX=0.75;entryY=1;entryDx=0;entryDy=0;" edge="1" parent="1" source="0SpZsRbNBnnIL4KE9JeZ-74" target="0SpZsRbNBnnIL4KE9JeZ-16">
          <mxGeometry relative="1" as="geometry" />
        </mxCell>
        <mxCell id="gQqkHM6tkbFhDszC7yFE-6" style="edgeStyle=orthogonalEdgeStyle;rounded=0;orthogonalLoop=1;jettySize=auto;html=1;exitX=0.5;exitY=0;exitDx=0;exitDy=0;" edge="1" parent="1" source="0SpZsRbNBnnIL4KE9JeZ-74" target="0SpZsRbNBnnIL4KE9JeZ-20">
          <mxGeometry relative="1" as="geometry">
            <Array as="points">
              <mxPoint x="620" y="320" />
              <mxPoint x="60" y="320" />
            </Array>
          </mxGeometry>
        </mxCell>
        <mxCell id="KxEQ59rr3cLkcqyCNmUa-2" style="edgeStyle=orthogonalEdgeStyle;rounded=0;orthogonalLoop=1;jettySize=auto;html=1;exitX=0.75;exitY=0;exitDx=0;exitDy=0;entryX=1;entryY=0.75;entryDx=0;entryDy=0;" edge="1" parent="1" source="0SpZsRbNBnnIL4KE9JeZ-74" target="0SpZsRbNBnnIL4KE9JeZ-1">
          <mxGeometry relative="1" as="geometry">
            <Array as="points">
              <mxPoint x="660" y="440" />
              <mxPoint x="720" y="440" />
              <mxPoint x="720" y="240" />
            </Array>
          </mxGeometry>
        </mxCell>
        <mxCell id="0SpZsRbNBnnIL4KE9JeZ-74" value="Doctors" style="whiteSpace=wrap;html=1;rounded=1;fillColor=#6d8764;fontColor=#ffffff;strokeColor=#3A5431;" vertex="1" parent="1">
          <mxGeometry x="570" y="428" width="120" height="60" as="geometry" />
        </mxCell>
        <mxCell id="gQqkHM6tkbFhDszC7yFE-7" style="edgeStyle=orthogonalEdgeStyle;rounded=0;orthogonalLoop=1;jettySize=auto;html=1;exitX=0;exitY=0.5;exitDx=0;exitDy=0;entryX=0.5;entryY=0;entryDx=0;entryDy=0;" edge="1" parent="1" source="0SpZsRbNBnnIL4KE9JeZ-92" target="ob3RGpo1RecC66wYNnC--22">
          <mxGeometry relative="1" as="geometry">
            <Array as="points">
              <mxPoint x="50" y="458" />
              <mxPoint x="50" y="748" />
            </Array>
          </mxGeometry>
        </mxCell>
        <mxCell id="0SpZsRbNBnnIL4KE9JeZ-92" value="Wards" style="whiteSpace=wrap;html=1;rounded=1;fillColor=#6d8764;fontColor=#ffffff;strokeColor=#3A5431;" vertex="1" parent="1">
          <mxGeometry x="254" y="428" width="120" height="60" as="geometry" />
        </mxCell>
        <mxCell id="ob3RGpo1RecC66wYNnC--48" style="edgeStyle=orthogonalEdgeStyle;rounded=1;orthogonalLoop=1;jettySize=auto;html=1;exitX=1;exitY=0.5;exitDx=0;exitDy=0;entryX=0.5;entryY=0;entryDx=0;entryDy=0;" edge="1" parent="1" source="ob3RGpo1RecC66wYNnC--22" target="ob3RGpo1RecC66wYNnC--45">
          <mxGeometry relative="1" as="geometry" />
        </mxCell>
        <mxCell id="ob3RGpo1RecC66wYNnC--22" value="Admission" style="whiteSpace=wrap;html=1;rounded=1;fillColor=#6d8764;fontColor=#ffffff;strokeColor=#3A5431;" vertex="1" parent="1">
          <mxGeometry x="-10" y="754" width="140" height="50" as="geometry" />
        </mxCell>
        <mxCell id="ob3RGpo1RecC66wYNnC--26" style="edgeStyle=orthogonalEdgeStyle;rounded=1;orthogonalLoop=1;jettySize=auto;html=1;exitX=0.5;exitY=1;exitDx=0;exitDy=0;" edge="1" parent="1">
          <mxGeometry relative="1" as="geometry">
            <mxPoint x="60" y="630" as="sourcePoint" />
            <mxPoint x="60" y="630" as="targetPoint" />
          </mxGeometry>
        </mxCell>
        <mxCell id="ob3RGpo1RecC66wYNnC--46" style="edgeStyle=orthogonalEdgeStyle;rounded=1;orthogonalLoop=1;jettySize=auto;html=1;exitX=1;exitY=0.5;exitDx=0;exitDy=0;entryX=0.5;entryY=1;entryDx=0;entryDy=0;" edge="1" parent="1" source="ob3RGpo1RecC66wYNnC--31" target="ob3RGpo1RecC66wYNnC--45">
          <mxGeometry relative="1" as="geometry" />
        </mxCell>
        <mxCell id="ob3RGpo1RecC66wYNnC--31" value="Inventory" style="whiteSpace=wrap;html=1;rounded=1;fillColor=#6d8764;fontColor=#ffffff;strokeColor=#3A5431;" vertex="1" parent="1">
          <mxGeometry x="160" y="877" width="120" height="40" as="geometry" />
        </mxCell>
        <mxCell id="ob3RGpo1RecC66wYNnC--35" value="Patient_admmission" style="whiteSpace=wrap;html=1;rounded=1;fillColor=#6d8764;fontColor=#ffffff;strokeColor=#3A5431;" vertex="1" parent="1">
          <mxGeometry x="350" y="640" width="240" height="60" as="geometry" />
        </mxCell>
        <mxCell id="ob3RGpo1RecC66wYNnC--45" value="Patient_inventory" style="whiteSpace=wrap;html=1;rounded=1;fillColor=#6d8764;fontColor=#ffffff;strokeColor=#3A5431;" vertex="1" parent="1">
          <mxGeometry x="390" y="799" width="120" height="40" as="geometry" />
        </mxCell>
        <mxCell id="ob3RGpo1RecC66wYNnC--74" value="billing" style="whiteSpace=wrap;html=1;rounded=1;fillColor=#6d8764;fontColor=#ffffff;strokeColor=#3A5431;" vertex="1" parent="1">
          <mxGeometry x="655" y="20" width="120" height="30" as="geometry" />
        </mxCell>
        <mxCell id="ob3RGpo1RecC66wYNnC--79" value="&lt;u&gt;prescription_id&lt;/u&gt;" style="ellipse;whiteSpace=wrap;html=1;shadow=0;rounded=1;fillColor=#ffe6cc;strokeColor=#d79b00;" vertex="1" parent="1">
          <mxGeometry x="-115" y="111" width="140" height="29" as="geometry" />
        </mxCell>
        <mxCell id="ob3RGpo1RecC66wYNnC--85" value="" style="line;strokeWidth=2;direction=south;html=1;rounded=1;" vertex="1" parent="1">
          <mxGeometry x="550" y="250" width="10" height="40" as="geometry" />
        </mxCell>
        <mxCell id="ob3RGpo1RecC66wYNnC--88" value="" style="endArrow=none;html=1;rounded=1;" edge="1" parent="1">
          <mxGeometry width="50" height="50" relative="1" as="geometry">
            <mxPoint x="420" y="200" as="sourcePoint" />
            <mxPoint x="480" y="214" as="targetPoint" />
            <Array as="points" />
          </mxGeometry>
        </mxCell>
        <mxCell id="ob3RGpo1RecC66wYNnC--91" value="" style="endArrow=none;html=1;rounded=1;entryX=0.658;entryY=0.048;entryDx=0;entryDy=0;entryPerimeter=0;exitX=0.573;exitY=0.96;exitDx=0;exitDy=0;exitPerimeter=0;" edge="1" parent="1" source="1VHxH9nMJPTkHr2wjVnj-12" target="0SpZsRbNBnnIL4KE9JeZ-1">
          <mxGeometry width="50" height="50" relative="1" as="geometry">
            <mxPoint x="559" y="160" as="sourcePoint" />
            <mxPoint x="559" y="200" as="targetPoint" />
          </mxGeometry>
        </mxCell>
        <mxCell id="ob3RGpo1RecC66wYNnC--96" value="Doctor_id" style="ellipse;whiteSpace=wrap;html=1;rounded=1;fillColor=#dae8fc;strokeColor=#6c8ebf;" vertex="1" parent="1">
          <mxGeometry x="597.5" y="160" width="115" height="25" as="geometry" />
        </mxCell>
        <mxCell id="ob3RGpo1RecC66wYNnC--97" value="" style="endArrow=none;html=1;rounded=1;exitX=0.936;exitY=0.976;exitDx=0;exitDy=0;exitPerimeter=0;" edge="1" parent="1" source="0SpZsRbNBnnIL4KE9JeZ-1">
          <mxGeometry width="50" height="50" relative="1" as="geometry">
            <mxPoint x="495" y="300" as="sourcePoint" />
            <mxPoint x="620" y="280" as="targetPoint" />
          </mxGeometry>
        </mxCell>
        <mxCell id="ob3RGpo1RecC66wYNnC--101" value="" style="endArrow=none;html=1;rounded=1;" edge="1" parent="1">
          <mxGeometry width="50" height="50" relative="1" as="geometry">
            <mxPoint x="660" y="531" as="sourcePoint" />
            <mxPoint x="660" y="491" as="targetPoint" />
          </mxGeometry>
        </mxCell>
        <mxCell id="ob3RGpo1RecC66wYNnC--108" value="specialization" style="ellipse;whiteSpace=wrap;html=1;rounded=1;" vertex="1" parent="1">
          <mxGeometry x="735" y="370" width="120" height="30" as="geometry" />
        </mxCell>
        <mxCell id="ob3RGpo1RecC66wYNnC--118" value="" style="endArrow=none;html=1;rounded=1;" edge="1" parent="1">
          <mxGeometry width="50" height="50" relative="1" as="geometry">
            <mxPoint x="380" y="280" as="sourcePoint" />
            <mxPoint x="380" y="280" as="targetPoint" />
          </mxGeometry>
        </mxCell>
        <mxCell id="ob3RGpo1RecC66wYNnC--122" value="" style="endArrow=none;html=1;rounded=1;entryX=0.99;entryY=0.9;entryDx=0;entryDy=0;exitX=0;exitY=0.5;exitDx=0;exitDy=0;entryPerimeter=0;" edge="1" parent="1" source="1VHxH9nMJPTkHr2wjVnj-33" target="0SpZsRbNBnnIL4KE9JeZ-16">
          <mxGeometry width="50" height="50" relative="1" as="geometry">
            <mxPoint x="950" y="350" as="sourcePoint" />
            <mxPoint x="910" y="310" as="targetPoint" />
          </mxGeometry>
        </mxCell>
        <mxCell id="ob3RGpo1RecC66wYNnC--125" value="" style="endArrow=none;html=1;rounded=1;entryX=0.279;entryY=1;entryDx=0;entryDy=0;entryPerimeter=0;" edge="1" parent="1" target="ob3RGpo1RecC66wYNnC--79">
          <mxGeometry width="50" height="50" relative="1" as="geometry">
            <mxPoint x="10" y="185" as="sourcePoint" />
            <mxPoint x="20" y="135" as="targetPoint" />
          </mxGeometry>
        </mxCell>
        <mxCell id="ob3RGpo1RecC66wYNnC--128" value="" style="endArrow=none;html=1;rounded=1;" edge="1" parent="1">
          <mxGeometry width="50" height="50" relative="1" as="geometry">
            <mxPoint x="110" y="185" as="sourcePoint" />
            <mxPoint x="160" y="160" as="targetPoint" />
          </mxGeometry>
        </mxCell>
        <mxCell id="ob3RGpo1RecC66wYNnC--132" value="" style="endArrow=none;html=1;rounded=1;" edge="1" parent="1">
          <mxGeometry width="50" height="50" relative="1" as="geometry">
            <mxPoint x="-68" y="193" as="sourcePoint" />
            <mxPoint y="193" as="targetPoint" />
          </mxGeometry>
        </mxCell>
        <mxCell id="ob3RGpo1RecC66wYNnC--134" value="" style="endArrow=none;html=1;rounded=1;entryX=0;entryY=0.75;entryDx=0;entryDy=0;" edge="1" parent="1" target="0SpZsRbNBnnIL4KE9JeZ-20">
          <mxGeometry width="50" height="50" relative="1" as="geometry">
            <mxPoint x="-70" y="230" as="sourcePoint" />
            <mxPoint x="-10" y="230" as="targetPoint" />
          </mxGeometry>
        </mxCell>
        <mxCell id="ob3RGpo1RecC66wYNnC--138" value="" style="endArrow=none;html=1;rounded=1;entryX=0.5;entryY=1;entryDx=0;entryDy=0;" edge="1" parent="1" target="1VHxH9nMJPTkHr2wjVnj-48">
          <mxGeometry width="50" height="50" relative="1" as="geometry">
            <mxPoint x="340" y="430" as="sourcePoint" />
            <mxPoint x="321" y="400" as="targetPoint" />
          </mxGeometry>
        </mxCell>
        <mxCell id="ob3RGpo1RecC66wYNnC--139" value="&lt;u&gt;Ward_id&lt;/u&gt;" style="ellipse;whiteSpace=wrap;html=1;rounded=1;fillColor=#ffe6cc;strokeColor=#d79b00;" vertex="1" parent="1">
          <mxGeometry x="125" y="380" width="120" height="30" as="geometry" />
        </mxCell>
        <mxCell id="ob3RGpo1RecC66wYNnC--159" value="" style="endArrow=none;html=1;rounded=1;entryX=0;entryY=0.325;entryDx=0;entryDy=0;entryPerimeter=0;" edge="1" parent="1" target="ob3RGpo1RecC66wYNnC--31">
          <mxGeometry width="50" height="50" relative="1" as="geometry">
            <mxPoint x="100" y="890" as="sourcePoint" />
            <mxPoint x="160" y="868" as="targetPoint" />
          </mxGeometry>
        </mxCell>
        <mxCell id="ob3RGpo1RecC66wYNnC--163" value="" style="endArrow=none;html=1;rounded=1;exitX=0.333;exitY=0.975;exitDx=0;exitDy=0;exitPerimeter=0;entryX=0.667;entryY=0.3;entryDx=0;entryDy=0;entryPerimeter=0;" edge="1" parent="1" source="ob3RGpo1RecC66wYNnC--31" target="1VHxH9nMJPTkHr2wjVnj-73">
          <mxGeometry width="50" height="50" relative="1" as="geometry">
            <mxPoint x="200" y="960" as="sourcePoint" />
            <mxPoint x="170" y="950" as="targetPoint" />
          </mxGeometry>
        </mxCell>
        <mxCell id="ob3RGpo1RecC66wYNnC--165" value="" style="endArrow=none;html=1;rounded=1;entryX=0.825;entryY=0.967;entryDx=0;entryDy=0;entryPerimeter=0;" edge="1" parent="1" source="1VHxH9nMJPTkHr2wjVnj-74" target="ob3RGpo1RecC66wYNnC--31">
          <mxGeometry width="50" height="50" relative="1" as="geometry">
            <mxPoint x="260" y="950" as="sourcePoint" />
            <mxPoint x="280" y="910" as="targetPoint" />
          </mxGeometry>
        </mxCell>
        <mxCell id="ob3RGpo1RecC66wYNnC--171" value="" style="endArrow=none;html=1;rounded=1;exitX=1;exitY=1;exitDx=0;exitDy=0;entryX=0.069;entryY=0.789;entryDx=0;entryDy=0;entryPerimeter=0;" edge="1" parent="1" target="1VHxH9nMJPTkHr2wjVnj-75">
          <mxGeometry width="50" height="50" relative="1" as="geometry">
            <mxPoint x="510" y="837" as="sourcePoint" />
            <mxPoint x="600" y="838" as="targetPoint" />
          </mxGeometry>
        </mxCell>
        <mxCell id="ob3RGpo1RecC66wYNnC--191" value="" style="endArrow=none;html=1;rounded=1;exitX=0;exitY=0;exitDx=0;exitDy=0;entryX=0.764;entryY=0.944;entryDx=0;entryDy=0;entryPerimeter=0;" edge="1" parent="1" source="ob3RGpo1RecC66wYNnC--74" target="1VHxH9nMJPTkHr2wjVnj-25">
          <mxGeometry width="50" height="50" relative="1" as="geometry">
            <mxPoint x="629.5" y="43.5" as="sourcePoint" />
            <mxPoint x="630" as="targetPoint" />
          </mxGeometry>
        </mxCell>
        <mxCell id="ob3RGpo1RecC66wYNnC--194" value="patient_id" style="ellipse;whiteSpace=wrap;html=1;rounded=1;fillColor=#dae8fc;strokeColor=#6c8ebf;" vertex="1" parent="1">
          <mxGeometry x="670" y="-50" width="120" height="30" as="geometry" />
        </mxCell>
        <mxCell id="ob3RGpo1RecC66wYNnC--198" value="" style="endArrow=none;html=1;rounded=1;exitX=1;exitY=1;exitDx=0;exitDy=0;entryX=0;entryY=0;entryDx=0;entryDy=0;" edge="1" parent="1" source="ob3RGpo1RecC66wYNnC--74" target="1VHxH9nMJPTkHr2wjVnj-26">
          <mxGeometry width="50" height="50" relative="1" as="geometry">
            <mxPoint x="730" y="103.5" as="sourcePoint" />
            <mxPoint x="830" y="67" as="targetPoint" />
          </mxGeometry>
        </mxCell>
        <mxCell id="dSdQ0EBk4041Fcn03njT-13" value="Indicators" style="rounded=0;whiteSpace=wrap;html=1;" vertex="1" parent="1">
          <mxGeometry x="880" y="-232" width="130" height="32" as="geometry" />
        </mxCell>
        <mxCell id="dSdQ0EBk4041Fcn03njT-17" style="edgeStyle=orthogonalEdgeStyle;rounded=1;orthogonalLoop=1;jettySize=auto;html=1;exitX=1;exitY=0.5;exitDx=0;exitDy=0;" edge="1" parent="1" source="dSdQ0EBk4041Fcn03njT-16">
          <mxGeometry relative="1" as="geometry">
            <mxPoint x="1000" y="-164.5999999999999" as="targetPoint" />
          </mxGeometry>
        </mxCell>
        <mxCell id="dSdQ0EBk4041Fcn03njT-16" value="Table" style="rounded=1;whiteSpace=wrap;html=1;" vertex="1" parent="1">
          <mxGeometry x="875" y="-180" width="90" height="30" as="geometry" />
        </mxCell>
        <mxCell id="dSdQ0EBk4041Fcn03njT-19" value="" style="rounded=1;whiteSpace=wrap;html=1;fillColor=#6d8764;fontColor=#ffffff;strokeColor=#3A5431;" vertex="1" parent="1">
          <mxGeometry x="1000" y="-176" width="50" height="26" as="geometry" />
        </mxCell>
        <mxCell id="dSdQ0EBk4041Fcn03njT-20" value="" style="ellipse;whiteSpace=wrap;html=1;rounded=1;fillColor=#ffe6cc;strokeColor=#d79b00;" vertex="1" parent="1">
          <mxGeometry x="1000" y="-140" width="60" height="30" as="geometry" />
        </mxCell>
        <mxCell id="dSdQ0EBk4041Fcn03njT-26" style="edgeStyle=orthogonalEdgeStyle;rounded=1;orthogonalLoop=1;jettySize=auto;html=1;exitX=1;exitY=0.5;exitDx=0;exitDy=0;entryX=0;entryY=0.5;entryDx=0;entryDy=0;" edge="1" parent="1" source="dSdQ0EBk4041Fcn03njT-22" target="dSdQ0EBk4041Fcn03njT-24">
          <mxGeometry relative="1" as="geometry" />
        </mxCell>
        <mxCell id="dSdQ0EBk4041Fcn03njT-22" value="Foreign_key" style="rounded=1;whiteSpace=wrap;html=1;" vertex="1" parent="1">
          <mxGeometry x="875" y="-100" width="90" height="30" as="geometry" />
        </mxCell>
        <mxCell id="dSdQ0EBk4041Fcn03njT-25" style="edgeStyle=orthogonalEdgeStyle;rounded=1;orthogonalLoop=1;jettySize=auto;html=1;exitX=1;exitY=0.5;exitDx=0;exitDy=0;entryX=0;entryY=0.5;entryDx=0;entryDy=0;" edge="1" parent="1" source="dSdQ0EBk4041Fcn03njT-23" target="dSdQ0EBk4041Fcn03njT-20">
          <mxGeometry relative="1" as="geometry" />
        </mxCell>
        <mxCell id="dSdQ0EBk4041Fcn03njT-23" value="Primary_key" style="rounded=1;whiteSpace=wrap;html=1;" vertex="1" parent="1">
          <mxGeometry x="875" y="-140" width="90" height="30" as="geometry" />
        </mxCell>
        <mxCell id="dSdQ0EBk4041Fcn03njT-24" value="" style="ellipse;whiteSpace=wrap;html=1;rounded=1;fillColor=#dae8fc;strokeColor=#6c8ebf;" vertex="1" parent="1">
          <mxGeometry x="1000" y="-100" width="60" height="30" as="geometry" />
        </mxCell>
        <mxCell id="gQqkHM6tkbFhDszC7yFE-2" style="edgeStyle=orthogonalEdgeStyle;rounded=0;orthogonalLoop=1;jettySize=auto;html=1;entryX=0.3;entryY=-0.05;entryDx=0;entryDy=0;entryPerimeter=0;" edge="1" parent="1" source="0SpZsRbNBnnIL4KE9JeZ-1" target="0SpZsRbNBnnIL4KE9JeZ-16">
          <mxGeometry relative="1" as="geometry">
            <Array as="points">
              <mxPoint x="818" y="229" />
            </Array>
          </mxGeometry>
        </mxCell>
        <mxCell id="1VHxH9nMJPTkHr2wjVnj-1" value="" style="endArrow=none;html=1;rounded=0;exitX=0.583;exitY=0.083;exitDx=0;exitDy=0;exitPerimeter=0;" edge="1" parent="1" source="0SpZsRbNBnnIL4KE9JeZ-20">
          <mxGeometry width="50" height="50" relative="1" as="geometry">
            <mxPoint x="80" y="180" as="sourcePoint" />
            <mxPoint x="100" y="135" as="targetPoint" />
          </mxGeometry>
        </mxCell>
        <mxCell id="1VHxH9nMJPTkHr2wjVnj-2" value="Patient_id" style="ellipse;whiteSpace=wrap;html=1;shadow=0;rounded=1;fillColor=#dae8fc;strokeColor=#6c8ebf;" vertex="1" parent="1">
          <mxGeometry x="37.5" y="106" width="140" height="29" as="geometry" />
        </mxCell>
        <mxCell id="1VHxH9nMJPTkHr2wjVnj-3" value="Doctor_id" style="ellipse;whiteSpace=wrap;html=1;shadow=0;rounded=1;fillColor=#dae8fc;strokeColor=#6c8ebf;" vertex="1" parent="1">
          <mxGeometry x="121" y="137" width="140" height="29" as="geometry" />
        </mxCell>
        <mxCell id="1VHxH9nMJPTkHr2wjVnj-4" value="" style="endArrow=none;html=1;rounded=0;exitX=1;exitY=0.25;exitDx=0;exitDy=0;" edge="1" parent="1" source="0SpZsRbNBnnIL4KE9JeZ-20">
          <mxGeometry width="50" height="50" relative="1" as="geometry">
            <mxPoint x="120" y="215" as="sourcePoint" />
            <mxPoint x="190" y="200" as="targetPoint" />
          </mxGeometry>
        </mxCell>
        <mxCell id="1VHxH9nMJPTkHr2wjVnj-5" value="Dosage" style="ellipse;whiteSpace=wrap;html=1;shadow=0;rounded=1;" vertex="1" parent="1">
          <mxGeometry x="160" y="185" width="140" height="29" as="geometry" />
        </mxCell>
        <mxCell id="1VHxH9nMJPTkHr2wjVnj-7" value="Prescription_date" style="ellipse;whiteSpace=wrap;html=1;shadow=0;rounded=1;" vertex="1" parent="1">
          <mxGeometry x="-200" y="179" width="140" height="29" as="geometry" />
        </mxCell>
        <mxCell id="1VHxH9nMJPTkHr2wjVnj-8" value="Medication" style="ellipse;whiteSpace=wrap;html=1;shadow=0;rounded=1;" vertex="1" parent="1">
          <mxGeometry x="-197.5" y="221" width="140" height="29" as="geometry" />
        </mxCell>
        <mxCell id="1VHxH9nMJPTkHr2wjVnj-11" value="" style="endArrow=none;html=1;rounded=0;entryX=0.368;entryY=0.96;entryDx=0;entryDy=0;entryPerimeter=0;" edge="1" parent="1" target="ob3RGpo1RecC66wYNnC--96">
          <mxGeometry width="50" height="50" relative="1" as="geometry">
            <mxPoint x="590" y="210" as="sourcePoint" />
            <mxPoint x="627" y="173.5" as="targetPoint" />
          </mxGeometry>
        </mxCell>
        <mxCell id="1VHxH9nMJPTkHr2wjVnj-12" value="gender" style="ellipse;whiteSpace=wrap;html=1;rounded=1;" vertex="1" parent="1">
          <mxGeometry x="500" y="128" width="110" height="25" as="geometry" />
        </mxCell>
        <mxCell id="1VHxH9nMJPTkHr2wjVnj-14" value="" style="endArrow=none;html=1;rounded=0;exitX=0.25;exitY=0;exitDx=0;exitDy=0;entryX=0.922;entryY=0.92;entryDx=0;entryDy=0;entryPerimeter=0;" edge="1" parent="1" source="0SpZsRbNBnnIL4KE9JeZ-1" target="1VHxH9nMJPTkHr2wjVnj-15">
          <mxGeometry width="50" height="50" relative="1" as="geometry">
            <mxPoint x="440" y="190" as="sourcePoint" />
            <mxPoint x="480" y="170" as="targetPoint" />
          </mxGeometry>
        </mxCell>
        <mxCell id="1VHxH9nMJPTkHr2wjVnj-15" value="Last_name" style="ellipse;whiteSpace=wrap;html=1;rounded=1;" vertex="1" parent="1">
          <mxGeometry x="376.5" y="150" width="115" height="25" as="geometry" />
        </mxCell>
        <mxCell id="1VHxH9nMJPTkHr2wjVnj-16" value="First_name" style="ellipse;whiteSpace=wrap;html=1;rounded=1;" vertex="1" parent="1">
          <mxGeometry x="330" y="189" width="115" height="25" as="geometry" />
        </mxCell>
        <mxCell id="1VHxH9nMJPTkHr2wjVnj-17" value="Contact_no" style="ellipse;whiteSpace=wrap;html=1;rounded=1;" vertex="1" parent="1">
          <mxGeometry x="600" y="272.5" width="115" height="25" as="geometry" />
        </mxCell>
        <mxCell id="1VHxH9nMJPTkHr2wjVnj-18" value="&lt;u&gt;Patient_id&lt;/u&gt;" style="ellipse;whiteSpace=wrap;html=1;rounded=1;fillColor=#ffe6cc;strokeColor=#d79b00;" vertex="1" parent="1">
          <mxGeometry x="485" y="280" width="115" height="25" as="geometry" />
        </mxCell>
        <mxCell id="1VHxH9nMJPTkHr2wjVnj-21" value="" style="endArrow=none;html=1;rounded=0;exitX=0.636;exitY=0.009;exitDx=0;exitDy=0;exitPerimeter=0;entryX=0.5;entryY=1;entryDx=0;entryDy=0;" edge="1" parent="1" source="ob3RGpo1RecC66wYNnC--74" target="ob3RGpo1RecC66wYNnC--194">
          <mxGeometry width="50" height="50" relative="1" as="geometry">
            <mxPoint x="685" y="40" as="sourcePoint" />
            <mxPoint x="735" y="-10" as="targetPoint" />
            <Array as="points" />
          </mxGeometry>
        </mxCell>
        <mxCell id="1VHxH9nMJPTkHr2wjVnj-22" value="Payment" style="ellipse;whiteSpace=wrap;html=1;rounded=1;" vertex="1" parent="1">
          <mxGeometry x="800" y="-10" width="120" height="30" as="geometry" />
        </mxCell>
        <mxCell id="1VHxH9nMJPTkHr2wjVnj-23" value="" style="endArrow=none;html=1;rounded=0;entryX=0;entryY=1;entryDx=0;entryDy=0;exitX=1;exitY=0.25;exitDx=0;exitDy=0;" edge="1" parent="1" source="ob3RGpo1RecC66wYNnC--74" target="1VHxH9nMJPTkHr2wjVnj-22">
          <mxGeometry width="50" height="50" relative="1" as="geometry">
            <mxPoint x="780" y="46.5" as="sourcePoint" />
            <mxPoint x="820" y="10" as="targetPoint" />
          </mxGeometry>
        </mxCell>
        <mxCell id="1VHxH9nMJPTkHr2wjVnj-25" value="Bill_id" style="ellipse;whiteSpace=wrap;html=1;rounded=1;fillColor=#ffe6cc;strokeColor=#d79b00;" vertex="1" parent="1">
          <mxGeometry x="530" y="-30" width="120" height="30" as="geometry" />
        </mxCell>
        <mxCell id="1VHxH9nMJPTkHr2wjVnj-26" value="Other_bill details" style="ellipse;whiteSpace=wrap;html=1;rounded=1;" vertex="1" parent="1">
          <mxGeometry x="815" y="50" width="120" height="30" as="geometry" />
        </mxCell>
        <mxCell id="1VHxH9nMJPTkHr2wjVnj-30" value="&lt;u&gt;Appointment_id&lt;/u&gt;" style="ellipse;whiteSpace=wrap;html=1;rounded=1;fillColor=#ffe6cc;strokeColor=#d79b00;" vertex="1" parent="1">
          <mxGeometry x="830" y="179" width="120" height="30" as="geometry" />
        </mxCell>
        <mxCell id="1VHxH9nMJPTkHr2wjVnj-31" value="Patient_id" style="ellipse;whiteSpace=wrap;html=1;rounded=1;fillColor=#dae8fc;strokeColor=#6c8ebf;" vertex="1" parent="1">
          <mxGeometry x="985" y="189" width="120" height="30" as="geometry" />
        </mxCell>
        <mxCell id="1VHxH9nMJPTkHr2wjVnj-32" value="Doctor_id" style="ellipse;whiteSpace=wrap;html=1;rounded=1;fillColor=#dae8fc;strokeColor=#6c8ebf;" vertex="1" parent="1">
          <mxGeometry x="1025" y="248" width="120" height="30" as="geometry" />
        </mxCell>
        <mxCell id="1VHxH9nMJPTkHr2wjVnj-33" value="Appointment_date" style="ellipse;whiteSpace=wrap;html=1;rounded=1;" vertex="1" parent="1">
          <mxGeometry x="1015" y="305" width="120" height="30" as="geometry" />
        </mxCell>
        <mxCell id="1VHxH9nMJPTkHr2wjVnj-35" value="" style="endArrow=none;html=1;rounded=0;entryX=0.217;entryY=0.911;entryDx=0;entryDy=0;entryPerimeter=0;" edge="1" parent="1" target="1VHxH9nMJPTkHr2wjVnj-31">
          <mxGeometry width="50" height="50" relative="1" as="geometry">
            <mxPoint x="950" y="255.5" as="sourcePoint" />
            <mxPoint x="1000" y="210" as="targetPoint" />
          </mxGeometry>
        </mxCell>
        <mxCell id="1VHxH9nMJPTkHr2wjVnj-37" value="" style="endArrow=none;html=1;rounded=0;exitX=0.603;exitY=-0.011;exitDx=0;exitDy=0;exitPerimeter=0;" edge="1" parent="1" source="0SpZsRbNBnnIL4KE9JeZ-16" target="1VHxH9nMJPTkHr2wjVnj-30">
          <mxGeometry width="50" height="50" relative="1" as="geometry">
            <mxPoint x="923" y="250" as="sourcePoint" />
            <mxPoint x="923" y="209" as="targetPoint" />
          </mxGeometry>
        </mxCell>
        <mxCell id="1VHxH9nMJPTkHr2wjVnj-38" value="Last_name" style="ellipse;whiteSpace=wrap;html=1;rounded=1;" vertex="1" parent="1">
          <mxGeometry x="745" y="478" width="120" height="30" as="geometry" />
        </mxCell>
        <mxCell id="1VHxH9nMJPTkHr2wjVnj-39" value="First_name" style="ellipse;whiteSpace=wrap;html=1;rounded=1;" vertex="1" parent="1">
          <mxGeometry x="717.5" y="520" width="120" height="30" as="geometry" />
        </mxCell>
        <mxCell id="1VHxH9nMJPTkHr2wjVnj-40" value="&lt;u&gt;Doctor_id&lt;/u&gt;" style="ellipse;whiteSpace=wrap;html=1;rounded=1;fillColor=#ffe6cc;strokeColor=#d79b00;" vertex="1" parent="1">
          <mxGeometry x="597.5" y="528" width="120" height="30" as="geometry" />
        </mxCell>
        <mxCell id="1VHxH9nMJPTkHr2wjVnj-42" value="Contact_no" style="ellipse;whiteSpace=wrap;html=1;rounded=1;" vertex="1" parent="1">
          <mxGeometry x="449" y="380" width="120" height="30" as="geometry" />
        </mxCell>
        <mxCell id="1VHxH9nMJPTkHr2wjVnj-43" value="" style="endArrow=none;html=1;rounded=0;exitX=0.083;exitY=0.033;exitDx=0;exitDy=0;exitPerimeter=0;entryX=1;entryY=1;entryDx=0;entryDy=0;" edge="1" parent="1" source="0SpZsRbNBnnIL4KE9JeZ-74" target="1VHxH9nMJPTkHr2wjVnj-42">
          <mxGeometry width="50" height="50" relative="1" as="geometry">
            <mxPoint x="570" y="420" as="sourcePoint" />
            <mxPoint x="555" y="410" as="targetPoint" />
          </mxGeometry>
        </mxCell>
        <mxCell id="1VHxH9nMJPTkHr2wjVnj-44" value="" style="endArrow=none;html=1;rounded=0;entryX=0;entryY=1;entryDx=0;entryDy=0;" edge="1" parent="1" target="ob3RGpo1RecC66wYNnC--108">
          <mxGeometry width="50" height="50" relative="1" as="geometry">
            <mxPoint x="683" y="430" as="sourcePoint" />
            <mxPoint x="703" y="410" as="targetPoint" />
          </mxGeometry>
        </mxCell>
        <mxCell id="1VHxH9nMJPTkHr2wjVnj-45" value="" style="endArrow=none;html=1;rounded=0;entryX=0;entryY=0.5;entryDx=0;entryDy=0;" edge="1" parent="1" source="0SpZsRbNBnnIL4KE9JeZ-74" target="1VHxH9nMJPTkHr2wjVnj-38">
          <mxGeometry width="50" height="50" relative="1" as="geometry">
            <mxPoint x="687.5" y="518" as="sourcePoint" />
            <mxPoint x="717.5" y="488" as="targetPoint" />
          </mxGeometry>
        </mxCell>
        <mxCell id="1VHxH9nMJPTkHr2wjVnj-46" value="" style="endArrow=none;html=1;rounded=0;exitX=0.5;exitY=0;exitDx=0;exitDy=0;" edge="1" parent="1" source="1VHxH9nMJPTkHr2wjVnj-39">
          <mxGeometry width="50" height="50" relative="1" as="geometry">
            <mxPoint x="750" y="530" as="sourcePoint" />
            <mxPoint x="683" y="485" as="targetPoint" />
          </mxGeometry>
        </mxCell>
        <mxCell id="1VHxH9nMJPTkHr2wjVnj-47" style="edgeStyle=orthogonalEdgeStyle;rounded=0;orthogonalLoop=1;jettySize=auto;html=1;exitX=0.25;exitY=1;exitDx=0;exitDy=0;entryX=0.644;entryY=-0.05;entryDx=0;entryDy=0;entryPerimeter=0;" edge="1" parent="1">
          <mxGeometry relative="1" as="geometry">
            <mxPoint x="620.22" y="491" as="sourcePoint" />
            <mxPoint x="489.7799999999999" y="640" as="targetPoint" />
            <Array as="points">
              <mxPoint x="620" y="510" />
              <mxPoint x="490" y="510" />
            </Array>
          </mxGeometry>
        </mxCell>
        <mxCell id="1VHxH9nMJPTkHr2wjVnj-48" value="Ward_name" style="ellipse;whiteSpace=wrap;html=1;rounded=1;" vertex="1" parent="1">
          <mxGeometry x="295" y="368" width="120" height="30" as="geometry" />
        </mxCell>
        <mxCell id="1VHxH9nMJPTkHr2wjVnj-49" value="Capacity" style="ellipse;whiteSpace=wrap;html=1;rounded=1;" vertex="1" parent="1">
          <mxGeometry x="415" y="438" width="120" height="30" as="geometry" />
        </mxCell>
        <mxCell id="1VHxH9nMJPTkHr2wjVnj-50" value="" style="endArrow=none;html=1;rounded=0;entryX=0;entryY=0.5;entryDx=0;entryDy=0;" edge="1" parent="1" target="1VHxH9nMJPTkHr2wjVnj-49">
          <mxGeometry width="50" height="50" relative="1" as="geometry">
            <mxPoint x="370" y="455" as="sourcePoint" />
            <mxPoint x="420" y="453" as="targetPoint" />
          </mxGeometry>
        </mxCell>
        <mxCell id="1VHxH9nMJPTkHr2wjVnj-51" value="" style="endArrow=none;html=1;rounded=0;exitX=0.133;exitY=0.033;exitDx=0;exitDy=0;exitPerimeter=0;entryX=1;entryY=1;entryDx=0;entryDy=0;" edge="1" parent="1" source="0SpZsRbNBnnIL4KE9JeZ-92" target="ob3RGpo1RecC66wYNnC--139">
          <mxGeometry width="50" height="50" relative="1" as="geometry">
            <mxPoint x="290" y="440" as="sourcePoint" />
            <mxPoint x="240" y="400" as="targetPoint" />
            <Array as="points" />
          </mxGeometry>
        </mxCell>
        <mxCell id="1VHxH9nMJPTkHr2wjVnj-53" style="edgeStyle=orthogonalEdgeStyle;rounded=0;orthogonalLoop=1;jettySize=auto;html=1;exitX=0;exitY=1;exitDx=0;exitDy=0;entryX=0.155;entryY=-0.06;entryDx=0;entryDy=0;entryPerimeter=0;" edge="1" parent="1" source="0SpZsRbNBnnIL4KE9JeZ-1" target="ob3RGpo1RecC66wYNnC--22">
          <mxGeometry relative="1" as="geometry">
            <Array as="points">
              <mxPoint x="480" y="360" />
              <mxPoint x="12" y="360" />
            </Array>
          </mxGeometry>
        </mxCell>
        <mxCell id="1VHxH9nMJPTkHr2wjVnj-54" style="edgeStyle=orthogonalEdgeStyle;rounded=0;orthogonalLoop=1;jettySize=auto;html=1;exitX=0.75;exitY=1;exitDx=0;exitDy=0;entryX=0.4;entryY=0.039;entryDx=0;entryDy=0;entryPerimeter=0;" edge="1" parent="1" source="0SpZsRbNBnnIL4KE9JeZ-92" target="ob3RGpo1RecC66wYNnC--35">
          <mxGeometry relative="1" as="geometry" />
        </mxCell>
        <mxCell id="1VHxH9nMJPTkHr2wjVnj-55" value="Doctor_id" style="ellipse;whiteSpace=wrap;html=1;rounded=1;fillColor=#dae8fc;strokeColor=#6c8ebf;" vertex="1" parent="1">
          <mxGeometry x="530" y="725" width="120" height="30" as="geometry" />
        </mxCell>
        <mxCell id="1VHxH9nMJPTkHr2wjVnj-56" value="Ward_id" style="ellipse;whiteSpace=wrap;html=1;rounded=1;fillColor=#dae8fc;strokeColor=#6c8ebf;" vertex="1" parent="1">
          <mxGeometry x="306" y="730" width="120" height="30" as="geometry" />
        </mxCell>
        <mxCell id="1VHxH9nMJPTkHr2wjVnj-57" value="" style="endArrow=none;html=1;rounded=0;exitX=0.5;exitY=0;exitDx=0;exitDy=0;" edge="1" parent="1" source="1VHxH9nMJPTkHr2wjVnj-56">
          <mxGeometry width="50" height="50" relative="1" as="geometry">
            <mxPoint x="355" y="720" as="sourcePoint" />
            <mxPoint x="370" y="700" as="targetPoint" />
          </mxGeometry>
        </mxCell>
        <mxCell id="1VHxH9nMJPTkHr2wjVnj-58" value="" style="endArrow=none;html=1;rounded=0;exitX=0.239;exitY=0.011;exitDx=0;exitDy=0;exitPerimeter=0;" edge="1" parent="1" source="1VHxH9nMJPTkHr2wjVnj-55">
          <mxGeometry width="50" height="50" relative="1" as="geometry">
            <mxPoint x="520" y="720" as="sourcePoint" />
            <mxPoint x="540" y="700" as="targetPoint" />
            <Array as="points" />
          </mxGeometry>
        </mxCell>
        <mxCell id="1VHxH9nMJPTkHr2wjVnj-59" value="Admmission_reason" style="ellipse;whiteSpace=wrap;html=1;rounded=1;" vertex="1" parent="1">
          <mxGeometry x="57.5" y="839" width="120" height="30" as="geometry" />
        </mxCell>
        <mxCell id="1VHxH9nMJPTkHr2wjVnj-60" value="Ward_id" style="ellipse;whiteSpace=wrap;html=1;rounded=1;fillColor=#dae8fc;strokeColor=#6c8ebf;" vertex="1" parent="1">
          <mxGeometry x="125" y="680" width="120" height="30" as="geometry" />
        </mxCell>
        <mxCell id="1VHxH9nMJPTkHr2wjVnj-61" value="Patient_id" style="ellipse;whiteSpace=wrap;html=1;rounded=1;fillColor=#dae8fc;strokeColor=#6c8ebf;" vertex="1" parent="1">
          <mxGeometry x="170" y="730" width="120" height="30" as="geometry" />
        </mxCell>
        <mxCell id="1VHxH9nMJPTkHr2wjVnj-63" value="&lt;u&gt;Admmission_id&lt;/u&gt;" style="ellipse;whiteSpace=wrap;html=1;rounded=1;fillColor=#ffe6cc;strokeColor=#d79b00;" vertex="1" parent="1">
          <mxGeometry x="-197.5" y="740" width="120" height="30" as="geometry" />
        </mxCell>
        <mxCell id="1VHxH9nMJPTkHr2wjVnj-64" value="Admmission_status" style="ellipse;whiteSpace=wrap;html=1;rounded=1;" vertex="1" parent="1">
          <mxGeometry x="-180" y="782" width="120" height="30" as="geometry" />
        </mxCell>
        <mxCell id="1VHxH9nMJPTkHr2wjVnj-65" value="" style="endArrow=none;html=1;rounded=0;entryX=0.902;entryY=0.993;entryDx=0;entryDy=0;entryPerimeter=0;" edge="1" parent="1" source="1VHxH9nMJPTkHr2wjVnj-59" target="ob3RGpo1RecC66wYNnC--22">
          <mxGeometry width="50" height="50" relative="1" as="geometry">
            <mxPoint x="79.23076923076906" y="820" as="sourcePoint" />
            <mxPoint x="90" y="806" as="targetPoint" />
          </mxGeometry>
        </mxCell>
        <mxCell id="1VHxH9nMJPTkHr2wjVnj-66" value="" style="endArrow=none;html=1;rounded=0;entryX=0.067;entryY=0.722;entryDx=0;entryDy=0;entryPerimeter=0;" edge="1" parent="1" target="1VHxH9nMJPTkHr2wjVnj-60">
          <mxGeometry width="50" height="50" relative="1" as="geometry">
            <mxPoint x="100" y="754" as="sourcePoint" />
            <mxPoint x="150" y="704" as="targetPoint" />
          </mxGeometry>
        </mxCell>
        <mxCell id="1VHxH9nMJPTkHr2wjVnj-67" value="" style="endArrow=none;html=1;rounded=0;entryX=0;entryY=0.5;entryDx=0;entryDy=0;" edge="1" parent="1" target="1VHxH9nMJPTkHr2wjVnj-61">
          <mxGeometry width="50" height="50" relative="1" as="geometry">
            <mxPoint x="130" y="765" as="sourcePoint" />
            <mxPoint x="170" y="725" as="targetPoint" />
          </mxGeometry>
        </mxCell>
        <mxCell id="1VHxH9nMJPTkHr2wjVnj-69" value="" style="endArrow=none;html=1;rounded=0;entryX=0;entryY=0.25;entryDx=0;entryDy=0;exitX=0.914;exitY=0.856;exitDx=0;exitDy=0;exitPerimeter=0;" edge="1" parent="1" source="1VHxH9nMJPTkHr2wjVnj-63" target="ob3RGpo1RecC66wYNnC--22">
          <mxGeometry width="50" height="50" relative="1" as="geometry">
            <mxPoint x="-70" y="750" as="sourcePoint" />
            <mxPoint x="-20" y="700" as="targetPoint" />
          </mxGeometry>
        </mxCell>
        <mxCell id="1VHxH9nMJPTkHr2wjVnj-70" value="" style="endArrow=none;html=1;rounded=0;entryX=0;entryY=0.75;entryDx=0;entryDy=0;exitX=0.936;exitY=0.678;exitDx=0;exitDy=0;exitPerimeter=0;" edge="1" parent="1" source="1VHxH9nMJPTkHr2wjVnj-64" target="ob3RGpo1RecC66wYNnC--22">
          <mxGeometry width="50" height="50" relative="1" as="geometry">
            <mxPoint x="-57.5" y="790" as="sourcePoint" />
            <mxPoint x="-7.5" y="740" as="targetPoint" />
          </mxGeometry>
        </mxCell>
        <mxCell id="1VHxH9nMJPTkHr2wjVnj-72" value="&lt;u&gt;Item_id&lt;/u&gt;" style="ellipse;whiteSpace=wrap;html=1;rounded=1;fillColor=#ffe6cc;strokeColor=#d79b00;" vertex="1" parent="1">
          <mxGeometry x="-10" y="875" width="120" height="30" as="geometry" />
        </mxCell>
        <mxCell id="1VHxH9nMJPTkHr2wjVnj-73" value="Item_name" style="ellipse;whiteSpace=wrap;html=1;rounded=1;" vertex="1" parent="1">
          <mxGeometry x="70" y="960" width="120" height="30" as="geometry" />
        </mxCell>
        <mxCell id="1VHxH9nMJPTkHr2wjVnj-74" value="Quantity_available" style="ellipse;whiteSpace=wrap;html=1;rounded=1;" vertex="1" parent="1">
          <mxGeometry x="200" y="960" width="120" height="30" as="geometry" />
        </mxCell>
        <mxCell id="1VHxH9nMJPTkHr2wjVnj-75" value="Admmission_id" style="ellipse;whiteSpace=wrap;html=1;rounded=1;fillColor=#dae8fc;strokeColor=#6c8ebf;" vertex="1" parent="1">
          <mxGeometry x="590" y="830" width="120" height="30" as="geometry" />
        </mxCell>
        <mxCell id="1VHxH9nMJPTkHr2wjVnj-76" value="Item_id" style="ellipse;whiteSpace=wrap;html=1;rounded=1;fillColor=#dae8fc;strokeColor=#6c8ebf;" vertex="1" parent="1">
          <mxGeometry x="590" y="782" width="120" height="30" as="geometry" />
        </mxCell>
        <mxCell id="1VHxH9nMJPTkHr2wjVnj-77" value="" style="endArrow=none;html=1;rounded=0;entryX=0;entryY=0.5;entryDx=0;entryDy=0;" edge="1" parent="1" target="1VHxH9nMJPTkHr2wjVnj-76">
          <mxGeometry width="50" height="50" relative="1" as="geometry">
            <mxPoint x="510" y="804.5" as="sourcePoint" />
            <mxPoint x="600" y="804.5" as="targetPoint" />
          </mxGeometry>
        </mxCell>
        <mxCell id="1VHxH9nMJPTkHr2wjVnj-78" value="1" style="text;html=1;align=center;verticalAlign=middle;resizable=0;points=[];autosize=1;strokeColor=none;fillColor=none;" vertex="1" parent="1">
          <mxGeometry x="385" y="228" width="30" height="30" as="geometry" />
        </mxCell>
        <mxCell id="1VHxH9nMJPTkHr2wjVnj-79" value="m" style="text;html=1;align=center;verticalAlign=middle;resizable=0;points=[];autosize=1;strokeColor=none;fillColor=none;" vertex="1" parent="1">
          <mxGeometry x="175" y="228" width="30" height="30" as="geometry" />
        </mxCell>
        <mxCell id="1VHxH9nMJPTkHr2wjVnj-81" value="1" style="text;html=1;align=center;verticalAlign=middle;resizable=0;points=[];autosize=1;strokeColor=none;fillColor=none;" vertex="1" parent="1">
          <mxGeometry x="665" y="188" width="30" height="30" as="geometry" />
        </mxCell>
        <mxCell id="1VHxH9nMJPTkHr2wjVnj-82" value="m" style="text;html=1;align=center;verticalAlign=middle;resizable=0;points=[];autosize=1;strokeColor=none;fillColor=none;" vertex="1" parent="1">
          <mxGeometry x="725" y="105" width="30" height="30" as="geometry" />
        </mxCell>
        <mxCell id="1VHxH9nMJPTkHr2wjVnj-83" value="1" style="text;html=1;align=center;verticalAlign=middle;resizable=0;points=[];autosize=1;strokeColor=none;fillColor=none;" vertex="1" parent="1">
          <mxGeometry x="715" y="208" width="30" height="30" as="geometry" />
        </mxCell>
        <mxCell id="1VHxH9nMJPTkHr2wjVnj-84" value="m" style="text;html=1;align=center;verticalAlign=middle;resizable=0;points=[];autosize=1;strokeColor=none;fillColor=none;" vertex="1" parent="1">
          <mxGeometry x="815" y="218" width="30" height="30" as="geometry" />
        </mxCell>
        <mxCell id="1VHxH9nMJPTkHr2wjVnj-85" value="1" style="text;html=1;align=center;verticalAlign=middle;resizable=0;points=[];autosize=1;strokeColor=none;fillColor=none;" vertex="1" parent="1">
          <mxGeometry x="855" y="428" width="30" height="30" as="geometry" />
        </mxCell>
        <mxCell id="1VHxH9nMJPTkHr2wjVnj-86" value="m" style="text;html=1;align=center;verticalAlign=middle;resizable=0;points=[];autosize=1;strokeColor=none;fillColor=none;" vertex="1" parent="1">
          <mxGeometry x="885" y="358" width="30" height="30" as="geometry" />
        </mxCell>
        <mxCell id="1VHxH9nMJPTkHr2wjVnj-87" value="1" style="text;html=1;align=center;verticalAlign=middle;resizable=0;points=[];autosize=1;strokeColor=none;fillColor=none;" vertex="1" parent="1">
          <mxGeometry x="595" y="358" width="30" height="30" as="geometry" />
        </mxCell>
        <mxCell id="1VHxH9nMJPTkHr2wjVnj-89" value="m" style="text;html=1;align=center;verticalAlign=middle;resizable=0;points=[];autosize=1;strokeColor=none;fillColor=none;" vertex="1" parent="1">
          <mxGeometry x="275" y="315" width="30" height="30" as="geometry" />
        </mxCell>
        <mxCell id="1VHxH9nMJPTkHr2wjVnj-90" value="1" style="text;html=1;align=center;verticalAlign=middle;resizable=0;points=[];autosize=1;strokeColor=none;fillColor=none;" vertex="1" parent="1">
          <mxGeometry x="180" y="338" width="30" height="30" as="geometry" />
        </mxCell>
        <mxCell id="1VHxH9nMJPTkHr2wjVnj-91" value="m" style="text;html=1;align=center;verticalAlign=middle;resizable=0;points=[];autosize=1;strokeColor=none;fillColor=none;" vertex="1" parent="1">
          <mxGeometry x="-15" y="548" width="30" height="30" as="geometry" />
        </mxCell>
        <mxCell id="1VHxH9nMJPTkHr2wjVnj-92" value="1" style="text;html=1;align=center;verticalAlign=middle;resizable=0;points=[];autosize=1;strokeColor=none;fillColor=none;" vertex="1" parent="1">
          <mxGeometry x="245" y="774" width="30" height="30" as="geometry" />
        </mxCell>
        <mxCell id="1VHxH9nMJPTkHr2wjVnj-95" value="m" style="text;html=1;align=center;verticalAlign=middle;resizable=0;points=[];autosize=1;strokeColor=none;fillColor=none;" vertex="1" parent="1">
          <mxGeometry x="395" y="770" width="30" height="30" as="geometry" />
        </mxCell>
        <mxCell id="1VHxH9nMJPTkHr2wjVnj-96" value="1" style="text;html=1;align=center;verticalAlign=middle;resizable=0;points=[];autosize=1;strokeColor=none;fillColor=none;" vertex="1" parent="1">
          <mxGeometry x="325" y="875" width="30" height="30" as="geometry" />
        </mxCell>
        <mxCell id="1VHxH9nMJPTkHr2wjVnj-97" value="m" style="text;html=1;align=center;verticalAlign=middle;resizable=0;points=[];autosize=1;strokeColor=none;fillColor=none;" vertex="1" parent="1">
          <mxGeometry x="426" y="842" width="30" height="30" as="geometry" />
        </mxCell>
        <mxCell id="1VHxH9nMJPTkHr2wjVnj-98" value="1" style="text;html=1;align=center;verticalAlign=middle;resizable=0;points=[];autosize=1;strokeColor=none;fillColor=none;" vertex="1" parent="1">
          <mxGeometry x="322" y="528" width="30" height="30" as="geometry" />
        </mxCell>
        <mxCell id="1VHxH9nMJPTkHr2wjVnj-99" value="m" style="text;html=1;align=center;verticalAlign=middle;resizable=0;points=[];autosize=1;strokeColor=none;fillColor=none;" vertex="1" parent="1">
          <mxGeometry x="419" y="598" width="30" height="30" as="geometry" />
        </mxCell>
        <mxCell id="1VHxH9nMJPTkHr2wjVnj-100" value="1" style="text;html=1;align=center;verticalAlign=middle;resizable=0;points=[];autosize=1;strokeColor=none;fillColor=none;" vertex="1" parent="1">
          <mxGeometry x="515" y="508" width="30" height="30" as="geometry" />
        </mxCell>
        <mxCell id="1VHxH9nMJPTkHr2wjVnj-101" value="m" style="text;html=1;align=center;verticalAlign=middle;resizable=0;points=[];autosize=1;strokeColor=none;fillColor=none;" vertex="1" parent="1">
          <mxGeometry x="485" y="598" width="30" height="30" as="geometry" />
        </mxCell>
        <mxCell id="1VHxH9nMJPTkHr2wjVnj-102" value="&lt;b&gt;Hospital_management_system&lt;/b&gt;" style="whiteSpace=wrap;html=1;" vertex="1" parent="1">
          <mxGeometry x="170" y="-240" width="180" height="60" as="geometry" />
        </mxCell>
        <mxCell id="ue7LlLm3ZRb6u2dkbRea-17" style="edgeStyle=orthogonalEdgeStyle;rounded=0;orthogonalLoop=1;jettySize=auto;html=1;exitX=0;exitY=0.25;exitDx=0;exitDy=0;entryX=1;entryY=0.75;entryDx=0;entryDy=0;" edge="1" parent="1" source="ue7LlLm3ZRb6u2dkbRea-1" target="0SpZsRbNBnnIL4KE9JeZ-74">
          <mxGeometry relative="1" as="geometry" />
        </mxCell>
        <mxCell id="ue7LlLm3ZRb6u2dkbRea-47" style="edgeStyle=orthogonalEdgeStyle;rounded=0;orthogonalLoop=1;jettySize=auto;html=1;exitX=0;exitY=0.5;exitDx=0;exitDy=0;entryX=0;entryY=0.5;entryDx=0;entryDy=0;" edge="1" parent="1" source="ue7LlLm3ZRb6u2dkbRea-1" target="ue7LlLm3ZRb6u2dkbRea-36">
          <mxGeometry relative="1" as="geometry" />
        </mxCell>
        <mxCell id="ue7LlLm3ZRb6u2dkbRea-1" value="Departments" style="rounded=1;whiteSpace=wrap;html=1;fillColor=#6d8764;fontColor=#ffffff;strokeColor=#3A5431;" vertex="1" parent="1">
          <mxGeometry x="1220" y="488" width="120" height="60" as="geometry" />
        </mxCell>
        <mxCell id="ue7LlLm3ZRb6u2dkbRea-2" value="&lt;u&gt;Department_id&lt;/u&gt;" style="ellipse;whiteSpace=wrap;html=1;rounded=1;fillColor=#ffe6cc;strokeColor=#d79b00;" vertex="1" parent="1">
          <mxGeometry x="1220" y="398" width="120" height="30" as="geometry" />
        </mxCell>
        <mxCell id="ue7LlLm3ZRb6u2dkbRea-3" value="Department_name" style="ellipse;whiteSpace=wrap;html=1;rounded=1;" vertex="1" parent="1">
          <mxGeometry x="1105" y="572" width="120" height="30" as="geometry" />
        </mxCell>
        <mxCell id="ue7LlLm3ZRb6u2dkbRea-4" value="Doctor_id" style="ellipse;whiteSpace=wrap;html=1;rounded=1;fillColor=#dae8fc;strokeColor=#6c8ebf;" vertex="1" parent="1">
          <mxGeometry x="1230" y="602" width="120" height="30" as="geometry" />
        </mxCell>
        <mxCell id="ue7LlLm3ZRb6u2dkbRea-5" value="Hire_date" style="ellipse;whiteSpace=wrap;html=1;rounded=1;" vertex="1" parent="1">
          <mxGeometry x="1350" y="578" width="120" height="30" as="geometry" />
        </mxCell>
        <mxCell id="ue7LlLm3ZRb6u2dkbRea-6" value="Affilation" style="ellipse;whiteSpace=wrap;html=1;rounded=1;" vertex="1" parent="1">
          <mxGeometry x="1390" y="458" width="120" height="30" as="geometry" />
        </mxCell>
        <mxCell id="ue7LlLm3ZRb6u2dkbRea-8" value="" style="endArrow=none;html=1;rounded=0;entryX=0;entryY=0.5;entryDx=0;entryDy=0;" edge="1" parent="1" target="ue7LlLm3ZRb6u2dkbRea-6">
          <mxGeometry width="50" height="50" relative="1" as="geometry">
            <mxPoint x="1340" y="490" as="sourcePoint" />
            <mxPoint x="1294" y="438" as="targetPoint" />
          </mxGeometry>
        </mxCell>
        <mxCell id="ue7LlLm3ZRb6u2dkbRea-11" value="" style="endArrow=none;html=1;rounded=0;" edge="1" parent="1" source="ue7LlLm3ZRb6u2dkbRea-4">
          <mxGeometry width="50" height="50" relative="1" as="geometry">
            <mxPoint x="1286.04" y="599.6399999999999" as="sourcePoint" />
            <mxPoint x="1287" y="548" as="targetPoint" />
          </mxGeometry>
        </mxCell>
        <mxCell id="ue7LlLm3ZRb6u2dkbRea-12" value="" style="endArrow=none;html=1;rounded=0;entryX=0;entryY=0.75;entryDx=0;entryDy=0;" edge="1" parent="1" source="ue7LlLm3ZRb6u2dkbRea-3" target="ue7LlLm3ZRb6u2dkbRea-1">
          <mxGeometry width="50" height="50" relative="1" as="geometry">
            <mxPoint x="1305.04" y="507.6399999999999" as="sourcePoint" />
            <mxPoint x="1210" y="540" as="targetPoint" />
          </mxGeometry>
        </mxCell>
        <mxCell id="ue7LlLm3ZRb6u2dkbRea-13" value="" style="endArrow=none;html=1;rounded=0;entryX=0;entryY=0;entryDx=0;entryDy=0;" edge="1" parent="1" target="ue7LlLm3ZRb6u2dkbRea-5">
          <mxGeometry width="50" height="50" relative="1" as="geometry">
            <mxPoint x="1335" y="547" as="sourcePoint" />
            <mxPoint x="1370.3200000000002" y="580.0100000000002" as="targetPoint" />
          </mxGeometry>
        </mxCell>
        <mxCell id="ue7LlLm3ZRb6u2dkbRea-14" value="" style="endArrow=none;html=1;rounded=0;entryX=0;entryY=0.5;entryDx=0;entryDy=0;" edge="1" parent="1" target="1VHxH9nMJPTkHr2wjVnj-32">
          <mxGeometry width="50" height="50" relative="1" as="geometry">
            <mxPoint x="965" y="275" as="sourcePoint" />
            <mxPoint x="1015" y="225" as="targetPoint" />
          </mxGeometry>
        </mxCell>
        <mxCell id="ue7LlLm3ZRb6u2dkbRea-18" value="1" style="text;html=1;align=center;verticalAlign=middle;resizable=0;points=[];autosize=1;strokeColor=none;fillColor=none;" vertex="1" parent="1">
          <mxGeometry x="1075" y="479" width="30" height="30" as="geometry" />
        </mxCell>
        <mxCell id="ue7LlLm3ZRb6u2dkbRea-19" value="m" style="text;html=1;align=center;verticalAlign=middle;resizable=0;points=[];autosize=1;strokeColor=none;fillColor=none;" vertex="1" parent="1">
          <mxGeometry x="845" y="468" width="30" height="30" as="geometry" />
        </mxCell>
        <mxCell id="ue7LlLm3ZRb6u2dkbRea-21" value="" style="endArrow=none;html=1;rounded=0;exitX=1;exitY=0.5;exitDx=0;exitDy=0;entryX=0;entryY=0.5;entryDx=0;entryDy=0;" edge="1" parent="1" source="ob3RGpo1RecC66wYNnC--35" target="ue7LlLm3ZRb6u2dkbRea-22">
          <mxGeometry width="50" height="50" relative="1" as="geometry">
            <mxPoint x="670" y="640" as="sourcePoint" />
            <mxPoint x="640" y="670" as="targetPoint" />
          </mxGeometry>
        </mxCell>
        <mxCell id="ue7LlLm3ZRb6u2dkbRea-22" value="Location" style="ellipse;whiteSpace=wrap;html=1;rounded=1;" vertex="1" parent="1">
          <mxGeometry x="635" y="655" width="120" height="30" as="geometry" />
        </mxCell>
        <mxCell id="ue7LlLm3ZRb6u2dkbRea-23" value="Admmission_start_date" style="ellipse;whiteSpace=wrap;html=1;rounded=1;" vertex="1" parent="1">
          <mxGeometry x="597.5" y="590" width="162.5" height="30" as="geometry" />
        </mxCell>
        <mxCell id="ue7LlLm3ZRb6u2dkbRea-24" value="" style="endArrow=none;html=1;rounded=0;exitX=1;exitY=0.5;exitDx=0;exitDy=0;entryX=0;entryY=1;entryDx=0;entryDy=0;" edge="1" parent="1" target="ue7LlLm3ZRb6u2dkbRea-23">
          <mxGeometry width="50" height="50" relative="1" as="geometry">
            <mxPoint x="575" y="639" as="sourcePoint" />
            <mxPoint x="625" y="639" as="targetPoint" />
          </mxGeometry>
        </mxCell>
        <mxCell id="ue7LlLm3ZRb6u2dkbRea-25" value="Admmission_end_date" style="ellipse;whiteSpace=wrap;html=1;rounded=1;" vertex="1" parent="1">
          <mxGeometry x="227.5" y="590" width="162.5" height="30" as="geometry" />
        </mxCell>
        <mxCell id="ue7LlLm3ZRb6u2dkbRea-26" value="" style="endArrow=none;html=1;rounded=0;exitX=-0.007;exitY=0.128;exitDx=0;exitDy=0;entryX=0.565;entryY=0.989;entryDx=0;entryDy=0;exitPerimeter=0;entryPerimeter=0;" edge="1" parent="1" source="ob3RGpo1RecC66wYNnC--35" target="ue7LlLm3ZRb6u2dkbRea-25">
          <mxGeometry width="50" height="50" relative="1" as="geometry">
            <mxPoint x="309" y="639" as="sourcePoint" />
            <mxPoint x="355" y="616" as="targetPoint" />
          </mxGeometry>
        </mxCell>
        <mxCell id="ue7LlLm3ZRb6u2dkbRea-27" value="" style="endArrow=none;html=1;rounded=0;entryX=0.75;entryY=1;entryDx=0;entryDy=0;exitX=0.253;exitY=0.067;exitDx=0;exitDy=0;exitPerimeter=0;" edge="1" parent="1" source="ue7LlLm3ZRb6u2dkbRea-28" target="ob3RGpo1RecC66wYNnC--45">
          <mxGeometry width="50" height="50" relative="1" as="geometry">
            <mxPoint x="480" y="890" as="sourcePoint" />
            <mxPoint x="400" y="750" as="targetPoint" />
          </mxGeometry>
        </mxCell>
        <mxCell id="ue7LlLm3ZRb6u2dkbRea-28" value="Medical&lt;br&gt;_history" style="ellipse;whiteSpace=wrap;html=1;rounded=1;" vertex="1" parent="1">
          <mxGeometry x="460" y="882" width="120" height="30" as="geometry" />
        </mxCell>
        <mxCell id="ue7LlLm3ZRb6u2dkbRea-29" value="Ward_type" style="ellipse;whiteSpace=wrap;html=1;rounded=1;" vertex="1" parent="1">
          <mxGeometry x="110" y="503" width="120" height="30" as="geometry" />
        </mxCell>
        <mxCell id="ue7LlLm3ZRb6u2dkbRea-30" value="" style="endArrow=none;html=1;rounded=0;exitX=1;exitY=0;exitDx=0;exitDy=0;" edge="1" parent="1" target="0SpZsRbNBnnIL4KE9JeZ-92">
          <mxGeometry width="50" height="50" relative="1" as="geometry">
            <mxPoint x="212.42640687119274" y="506.3933982822018" as="sourcePoint" />
            <mxPoint x="254" y="487" as="targetPoint" />
          </mxGeometry>
        </mxCell>
        <mxCell id="ue7LlLm3ZRb6u2dkbRea-31" value="Insurance_info" style="ellipse;whiteSpace=wrap;html=1;rounded=1;" vertex="1" parent="1">
          <mxGeometry x="-95" y="830" width="120" height="30" as="geometry" />
        </mxCell>
        <mxCell id="ue7LlLm3ZRb6u2dkbRea-32" value="" style="endArrow=none;html=1;rounded=0;entryX=0;entryY=0.75;entryDx=0;entryDy=0;exitX=0.713;exitY=0.067;exitDx=0;exitDy=0;exitPerimeter=0;" edge="1" parent="1" source="ue7LlLm3ZRb6u2dkbRea-31">
          <mxGeometry width="50" height="50" relative="1" as="geometry">
            <mxPoint x="3" y="832" as="sourcePoint" />
            <mxPoint x="17" y="806" as="targetPoint" />
          </mxGeometry>
        </mxCell>
        <mxCell id="ue7LlLm3ZRb6u2dkbRea-33" value="Manufaturer" style="ellipse;whiteSpace=wrap;html=1;rounded=1;" vertex="1" parent="1">
          <mxGeometry x="330" y="921" width="120" height="30" as="geometry" />
        </mxCell>
        <mxCell id="ue7LlLm3ZRb6u2dkbRea-34" value="" style="endArrow=none;html=1;rounded=0;" edge="1" parent="1" target="ue7LlLm3ZRb6u2dkbRea-33">
          <mxGeometry width="50" height="50" relative="1" as="geometry">
            <mxPoint x="280" y="915" as="sourcePoint" />
            <mxPoint x="310" y="920" as="targetPoint" />
          </mxGeometry>
        </mxCell>
        <mxCell id="ue7LlLm3ZRb6u2dkbRea-36" value="Medical_equipments" style="rounded=1;whiteSpace=wrap;html=1;fillColor=#6d8764;fontColor=#ffffff;strokeColor=#3A5431;" vertex="1" parent="1">
          <mxGeometry x="1040" y="710" width="120" height="60" as="geometry" />
        </mxCell>
        <mxCell id="ue7LlLm3ZRb6u2dkbRea-37" value="&lt;u&gt;Equipment_id&lt;/u&gt;" style="ellipse;whiteSpace=wrap;html=1;rounded=1;fillColor=#ffe6cc;strokeColor=#d79b00;" vertex="1" parent="1">
          <mxGeometry x="1050" y="640" width="120" height="35" as="geometry" />
        </mxCell>
        <mxCell id="ue7LlLm3ZRb6u2dkbRea-38" value="Department_id" style="ellipse;whiteSpace=wrap;html=1;rounded=1;fillColor=#dae8fc;strokeColor=#6c8ebf;" vertex="1" parent="1">
          <mxGeometry x="1190" y="700" width="120" height="30" as="geometry" />
        </mxCell>
        <mxCell id="ue7LlLm3ZRb6u2dkbRea-39" value="Equipment_name" style="ellipse;whiteSpace=wrap;html=1;rounded=1;" vertex="1" parent="1">
          <mxGeometry x="1210" y="764" width="120" height="30" as="geometry" />
        </mxCell>
        <mxCell id="ue7LlLm3ZRb6u2dkbRea-40" value="Category" style="ellipse;whiteSpace=wrap;html=1;rounded=1;" vertex="1" parent="1">
          <mxGeometry x="1110" y="812" width="120" height="30" as="geometry" />
        </mxCell>
        <mxCell id="ue7LlLm3ZRb6u2dkbRea-41" value="Manufacturer" style="ellipse;whiteSpace=wrap;html=1;rounded=1;" vertex="1" parent="1">
          <mxGeometry x="970" y="812" width="120" height="30" as="geometry" />
        </mxCell>
        <mxCell id="ue7LlLm3ZRb6u2dkbRea-43" value="" style="endArrow=none;html=1;rounded=0;exitX=1;exitY=0.25;exitDx=0;exitDy=0;" edge="1" parent="1" source="ue7LlLm3ZRb6u2dkbRea-36" target="ue7LlLm3ZRb6u2dkbRea-38">
          <mxGeometry width="50" height="50" relative="1" as="geometry">
            <mxPoint x="1112.96" y="720" as="sourcePoint" />
            <mxPoint x="1220" y="710" as="targetPoint" />
          </mxGeometry>
        </mxCell>
        <mxCell id="ue7LlLm3ZRb6u2dkbRea-44" value="" style="endArrow=none;html=1;rounded=0;exitX=1.003;exitY=0.628;exitDx=0;exitDy=0;entryX=0.083;entryY=0.2;entryDx=0;entryDy=0;entryPerimeter=0;exitPerimeter=0;" edge="1" parent="1" source="ue7LlLm3ZRb6u2dkbRea-36" target="ue7LlLm3ZRb6u2dkbRea-39">
          <mxGeometry width="50" height="50" relative="1" as="geometry">
            <mxPoint x="1170" y="735" as="sourcePoint" />
            <mxPoint x="1230" y="720" as="targetPoint" />
          </mxGeometry>
        </mxCell>
        <mxCell id="ue7LlLm3ZRb6u2dkbRea-45" value="" style="endArrow=none;html=1;rounded=0;entryX=0.5;entryY=0;entryDx=0;entryDy=0;" edge="1" parent="1" source="ue7LlLm3ZRb6u2dkbRea-36" target="ue7LlLm3ZRb6u2dkbRea-40">
          <mxGeometry width="50" height="50" relative="1" as="geometry">
            <mxPoint x="1170" y="758" as="sourcePoint" />
            <mxPoint x="1170" y="810" as="targetPoint" />
          </mxGeometry>
        </mxCell>
        <mxCell id="ue7LlLm3ZRb6u2dkbRea-46" value="" style="endArrow=none;html=1;rounded=0;entryX=0.5;entryY=0;entryDx=0;entryDy=0;" edge="1" parent="1" target="ue7LlLm3ZRb6u2dkbRea-41">
          <mxGeometry width="50" height="50" relative="1" as="geometry">
            <mxPoint x="1052" y="772" as="sourcePoint" />
            <mxPoint x="1010" y="810" as="targetPoint" />
          </mxGeometry>
        </mxCell>
        <mxCell id="ue7LlLm3ZRb6u2dkbRea-48" value="1" style="text;html=1;align=center;verticalAlign=middle;resizable=0;points=[];autosize=1;strokeColor=none;fillColor=none;" vertex="1" parent="1">
          <mxGeometry x="1105" y="516" width="30" height="30" as="geometry" />
        </mxCell>
        <mxCell id="ue7LlLm3ZRb6u2dkbRea-49" value="m" style="text;html=1;align=center;verticalAlign=middle;resizable=0;points=[];autosize=1;strokeColor=none;fillColor=none;" vertex="1" parent="1">
          <mxGeometry x="995" y="678" width="30" height="30" as="geometry" />
        </mxCell>
        <mxCell id="ue7LlLm3ZRb6u2dkbRea-50" style="edgeStyle=orthogonalEdgeStyle;rounded=0;orthogonalLoop=1;jettySize=auto;html=1;exitX=0.5;exitY=1;exitDx=0;exitDy=0;" edge="1" parent="1" source="ue7LlLm3ZRb6u2dkbRea-37" target="ue7LlLm3ZRb6u2dkbRea-37">
          <mxGeometry relative="1" as="geometry" />
        </mxCell>
        <mxCell id="ue7LlLm3ZRb6u2dkbRea-51" style="edgeStyle=orthogonalEdgeStyle;rounded=0;orthogonalLoop=1;jettySize=auto;html=1;exitX=0.5;exitY=1;exitDx=0;exitDy=0;" edge="1" parent="1" source="ue7LlLm3ZRb6u2dkbRea-37" target="ue7LlLm3ZRb6u2dkbRea-37">
          <mxGeometry relative="1" as="geometry" />
        </mxCell>
        <mxCell id="ue7LlLm3ZRb6u2dkbRea-54" style="edgeStyle=orthogonalEdgeStyle;rounded=0;orthogonalLoop=1;jettySize=auto;html=1;exitX=0.5;exitY=1;exitDx=0;exitDy=0;" edge="1" parent="1" source="ue7LlLm3ZRb6u2dkbRea-37" target="ue7LlLm3ZRb6u2dkbRea-37">
          <mxGeometry relative="1" as="geometry" />
        </mxCell>
        <mxCell id="ue7LlLm3ZRb6u2dkbRea-57" value="" style="endArrow=none;html=1;rounded=0;" edge="1" parent="1" target="ue7LlLm3ZRb6u2dkbRea-37">
          <mxGeometry width="50" height="50" relative="1" as="geometry">
            <mxPoint x="1105" y="708" as="sourcePoint" />
            <mxPoint x="1155" y="658" as="targetPoint" />
          </mxGeometry>
        </mxCell>
        <mxCell id="ue7LlLm3ZRb6u2dkbRea-60" value="" style="endArrow=none;html=1;rounded=0;entryX=0.5;entryY=1;entryDx=0;entryDy=0;exitX=0.5;exitY=0;exitDx=0;exitDy=0;" edge="1" parent="1" source="ue7LlLm3ZRb6u2dkbRea-1" target="ue7LlLm3ZRb6u2dkbRea-2">
          <mxGeometry width="50" height="50" relative="1" as="geometry">
            <mxPoint x="1280" y="488" as="sourcePoint" />
            <mxPoint x="1330" y="438" as="targetPoint" />
          </mxGeometry>
        </mxCell>
        <mxCell id="KxEQ59rr3cLkcqyCNmUa-3" value="1" style="text;html=1;align=center;verticalAlign=middle;resizable=0;points=[];autosize=1;strokeColor=none;fillColor=none;" vertex="1" parent="1">
          <mxGeometry x="695" y="349" width="30" height="30" as="geometry" />
        </mxCell>
        <mxCell id="KxEQ59rr3cLkcqyCNmUa-4" value="m" style="text;html=1;align=center;verticalAlign=middle;resizable=0;points=[];autosize=1;strokeColor=none;fillColor=none;" vertex="1" parent="1">
          <mxGeometry x="655" y="233" width="30" height="30" as="geometry" />
        </mxCell>
        <mxCell id="KxEQ59rr3cLkcqyCNmUa-5" value="1" style="text;html=1;align=center;verticalAlign=middle;resizable=0;points=[];autosize=1;strokeColor=none;fillColor=none;" vertex="1" parent="1">
          <mxGeometry x="135" y="458" width="30" height="30" as="geometry" />
        </mxCell>
        <mxCell id="KxEQ59rr3cLkcqyCNmUa-6" value="m" style="text;html=1;align=center;verticalAlign=middle;resizable=0;points=[];autosize=1;strokeColor=none;fillColor=none;" vertex="1" parent="1">
          <mxGeometry x="47" y="633" width="30" height="30" as="geometry" />
        </mxCell>
      </root>
    </mxGraphModel>
  </diagram>
</mxfile>
